# xmcd
#
# Track frame offsets:
#	150
#	15764
#	32825
#	49922
#	67154
#	81533
#	98082
#	115267
#	130365
#	145023
#	164695
#
# Disc length: 2426 seconds
#
# Revision: 1
# Processed by: cddbd v1.5.2PL0 Copyright (c) Steve Scherf et al.
# Submitted via: audiograbber 1.83.01
#
DISCID=9809780b
DTITLE=Stone, Doug - My turn
DYEAR=2007
DGENRE=Country
TTITLE0=We're all about that
TTITLE1=Dancing on glass
TTITLE2=Ain't that just like a woman
TTITLE3=Dont't tell mamma
TTITLE4=Nice problem
TTITLE5=The right side of lonesome
TTITLE6=The hardway
TTITLE7=She always gets what she wants
TTITLE8=That's how we roll
TTITLE9=To a better place
TTITLE10=You were never mine to lose
EXTD=
EXTT0=
EXTT1=
EXTT2=
EXTT3=
EXTT4=
EXTT5=
EXTT6=
EXTT7=
EXTT8=
EXTT9=
EXTT10=
PLAYORDER=
